<?xml version="1.0" encoding="UTF-8" standalone="no"?>
<!-- Created with Inkscape (http://www.inkscape.org/) -->

<svg
   version="1.1"
   id="svg2"
   xml:space="preserve"
   width="332.83731"
   height="315.83466"
   viewBox="0 0 332.83731 315.83466"
   sodipodi:docname="99633551e3500b007b6796ed39f30ccc.eps"
   xmlns:inkscape="http://www.inkscape.org/namespaces/inkscape"
   xmlns:sodipodi="http://sodipodi.sourceforge.net/DTD/sodipodi-0.dtd"
   xmlns="http://www.w3.org/2000/svg"
   xmlns:svg="http://www.w3.org/2000/svg"><defs
     id="defs6" /><sodipodi:namedview
     id="namedview4"
     pagecolor="#ffffff"
     bordercolor="#666666"
     borderopacity="1.0"
     inkscape:pageshadow="2"
     inkscape:pageopacity="0.0"
     inkscape:pagecheckerboard="0" /><g
     id="g8"
     inkscape:groupmode="layer"
     inkscape:label="ink_ext_XXXXXX"
     transform="matrix(1.3333333,0,0,-1.3333333,-166.91466,491.25065)"><g
       id="g10"
       transform="scale(0.1)"><path
         d="m 2329.11,2638.64 v 0 l -0.08,0.02 c 0.01,-0.04 0.01,-0.08 0.02,-0.12 l 0.06,0.1"
         style="fill:#d02a9d;fill-opacity:1;fill-rule:nonzero;stroke:none"
         id="path12" /><path
         d="m 2329.06,2638.4 0.05,0.24 -0.06,-0.1 c 0,-0.05 0.01,-0.1 0.01,-0.14"
         style="fill:#d02a9d;fill-opacity:1;fill-rule:nonzero;stroke:none"
         id="path14" /><path
         d="m 2057.84,3039.65 -0.07,0.19 v 0 l -0.02,-0.14 c 0.03,-0.01 0.06,-0.03 0.09,-0.05"
         style="fill:#d02a9d;fill-opacity:1;fill-rule:nonzero;stroke:none"
         id="path16" /><path
         d="M 1251.86,3108.95 Z"
         style="fill:#d02a9d;fill-opacity:1;fill-rule:nonzero;stroke:none"
         id="path18" /><path
         d="m 2057.77,3039.84 -0.17,-0.05 c 0.05,-0.03 0.1,-0.06 0.15,-0.09 l 0.02,0.14"
         style="fill:#d02a9d;fill-opacity:1;fill-rule:nonzero;stroke:none"
         id="path20" /><path
         d="m 1251.86,3108.95 v 0 0 0 0 0"
         style="fill:#d02a9d;fill-opacity:1;fill-rule:nonzero;stroke:none"
         id="path22" /><path
         d="M 1251.86,2183.67 Z"
         style="fill:#d02a9d;fill-opacity:1;fill-rule:nonzero;stroke:none"
         id="path24" /><path
         d="M 1251.86,3108.95 Z"
         style="fill:#d02a9d;fill-opacity:1;fill-rule:nonzero;stroke:none"
         id="path26" /><path
         d="M 2057.77,3039.84 Z"
         style="fill:#d02a9d;fill-opacity:1;fill-rule:nonzero;stroke:none"
         id="path28" /><path
         d="M 1517.63,3034.67 Z"
         style="fill:#d02a9d;fill-opacity:1;fill-rule:nonzero;stroke:none"
         id="path30" /><path
         d="M 2329.11,2638.64 Z"
         style="fill:#d02a9d;fill-opacity:1;fill-rule:nonzero;stroke:none"
         id="path32" /><path
         d="m 2329.03,2638.66 -121.9,33.34 -187.94,51.41 212.84,-231.73 97.02,146.86 c -0.01,0.04 -0.01,0.08 -0.02,0.12"
         style="fill:#d852b0;fill-opacity:1;fill-rule:nonzero;stroke:none"
         id="path34" /><path
         d="m 2293.05,2775.74 c -26.74,64 -66.53,122.72 -118.32,174.54 -35.64,35.62 -74.83,65.43 -116.89,89.37 l 66.08,-162.71 83.21,-204.94 121.9,-33.34 c -5.91,47.7 -17.84,93.62 -35.98,137.08"
         style="fill:#e17bc4;fill-opacity:1;fill-rule:nonzero;stroke:none"
         id="path36" /><path
         d="m 1810.99,3010.6 -7.78,-9.94 101.09,-12.04 153.3,51.17 c -19,10.8 -38.52,20.52 -58.67,28.83 -64.84,26.76 -134.64,40.33 -207.45,40.33 -99.38,0 -191.25,-24.95 -273.85,-74.28 l 285.58,-34.01 7.78,9.94"
         style="fill:#721a5f;fill-opacity:1;fill-rule:nonzero;stroke:none"
         id="path38" /><path
         d="m 2057.6,3039.79 -153.3,-51.17 -149.58,-49.93 v 0 l 284.9,-47.65 18.13,148.66 c -0.05,0.03 -0.1,0.06 -0.15,0.09"
         style="fill:#d852b0;fill-opacity:1;fill-rule:nonzero;stroke:none"
         id="path40" /><path
         d="M 1754.72,2938.69 Z"
         style="fill:#d02a9d;fill-opacity:1;fill-rule:nonzero;stroke:none"
         id="path42" /><path
         d="M 1517.63,3034.67 Z"
         style="fill:#d02a9d;fill-opacity:1;fill-rule:nonzero;stroke:none"
         id="path44" /><path
         d="M 2209.07,2051.13 Z"
         style="fill:#d02a9d;fill-opacity:1;fill-rule:nonzero;stroke:none"
         id="path46" /><path
         d="m 1364.87,2491.68 h 0.01 z"
         style="fill:#d02a9d;fill-opacity:1;fill-rule:nonzero;stroke:none"
         id="path48" /><path
         d="M 2019.19,2723.41 Z"
         style="fill:#d02a9d;fill-opacity:1;fill-rule:nonzero;stroke:none"
         id="path50" /><path
         d="M 1423.39,2828.1 Z"
         style="fill:#d02a9d;fill-opacity:1;fill-rule:nonzero;stroke:none"
         id="path52" /><path
         d="m 2123.92,2876.94 -66.08,162.71 c -0.03,0.02 -0.06,0.04 -0.09,0.05 l -18.13,-148.66 -20.43,-167.63 187.94,-51.41 -83.21,204.94"
         style="fill:#b4118f;fill-opacity:1;fill-rule:nonzero;stroke:none"
         id="path54" /><path
         d="m 2329.05,2638.54 -97.02,-146.86 -164.38,-248.83 141.42,-191.72 v 0 l 119.99,587.27 c 0,0.04 -0.01,0.09 -0.01,0.14"
         style="fill:#b4118f;fill-opacity:1;fill-rule:nonzero;stroke:none"
         id="path56" /><path
         d="M 1530.68,2652.43 Z"
         style="fill:#d02a9d;fill-opacity:1;fill-rule:nonzero;stroke:none"
         id="path58" /><path
         d="m 1754.72,2938.69 v 0 0 0 0"
         style="fill:#d02a9d;fill-opacity:1;fill-rule:nonzero;stroke:none"
         id="path60" /><path
         d="M 1754.72,2938.69 Z"
         style="fill:#d02a9d;fill-opacity:1;fill-rule:nonzero;stroke:none"
         id="path62" /><path
         d="m 1646.85,2800.86 c 12.13,7.57 24.79,14.55 38.35,20.48 33.12,14.49 68.89,21.84 106.28,21.84 20.71,0 40.86,-2.48 60.4,-6.96 l -97.16,102.47 -107.87,-137.83"
         style="fill:#b4118f;fill-opacity:1;fill-rule:nonzero;stroke:none"
         id="path64" /><path
         d="m 1530.68,2652.43 v 0 l -165.8,-160.75 152.75,-189.64 v 0 0 267.29 c 0,28.8 4.46,56.62 13.09,83.03 l -0.04,0.07"
         style="fill:#721a5f;fill-opacity:1;fill-rule:nonzero;stroke:none"
         id="path66" /><path
         d="m 2039.62,2891.04 -284.9,47.65 v 0 l 97.16,-102.47 c 15.74,-3.6 31.11,-8.41 45.88,-14.88 33.59,-14.69 63.37,-34.54 88.5,-58.96 12.09,-11.76 22.98,-24.73 32.7,-38.73 l 0.23,-0.24 20.43,167.63"
         style="fill:#d02a9d;fill-opacity:1;fill-rule:nonzero;stroke:none"
         id="path68" /><path
         d="m 1754.72,2938.69 v 0 l -331.33,-110.59 107.29,-175.67 0.13,0.16 c 2.55,7.79 5.36,15.49 8.65,23.02 14.66,33.48 34.41,62.77 58.68,87.06 14.46,14.44 30.88,27.07 48.71,38.19 l 107.87,137.83 v 0"
         style="fill:#d02a9d;fill-opacity:1;fill-rule:nonzero;stroke:none"
         id="path70" /><path
         d="m 1530.68,2652.43 0.1,0.1 c 0.01,0.02 0.02,0.04 0.03,0.06 l -0.13,-0.16 v 0"
         style="fill:#d02a9d;fill-opacity:1;fill-rule:nonzero;stroke:none"
         id="path72" /><path
         d="m 1530.72,2652.36 c 0.02,0.06 0.05,0.11 0.06,0.17 l -0.1,-0.1 0.04,-0.07"
         style="fill:#d02a9d;fill-opacity:1;fill-rule:nonzero;stroke:none"
         id="path74" /><path
         d="m 2019.19,2723.41 -0.23,0.24 c 0.06,-0.08 0.12,-0.15 0.18,-0.23 l 0.05,-0.01 v 0"
         style="fill:#d02a9d;fill-opacity:1;fill-rule:nonzero;stroke:none"
         id="path76" /><path
         d="m 2209.07,2051.13 v 0 l -141.42,-231.72 h 265.77 v 435.47 l -124.35,-203.75"
         style="fill:#e17bc4;fill-opacity:1;fill-rule:nonzero;stroke:none"
         id="path78" /><path
         d="m 2067.65,2242.85 v 0 -423.44 l 141.42,231.72 -141.42,191.72"
         style="fill:#d02a9d;fill-opacity:1;fill-rule:nonzero;stroke:none"
         id="path80" /><path
         d="m 2329.06,2638.4 -119.99,-587.27 124.35,203.75 v 314.45 c 0,23.4 -1.56,46.42 -4.36,69.07"
         style="fill:#d852b0;fill-opacity:1;fill-rule:nonzero;stroke:none"
         id="path82" /><path
         d="m 2232.03,2491.68 -212.84,231.73 v 0 l -0.01,-0.05 c 10.24,-14.77 19.16,-30.69 26.62,-47.74 14.5,-33.16 21.85,-68.93 21.85,-106.29 v -326.48 0 l 164.38,248.83"
         style="fill:#e17bc4;fill-opacity:1;fill-rule:nonzero;stroke:none"
         id="path84" /><path
         d="M 2067.65,2242.85 Z"
         style="fill:#d02a9d;fill-opacity:1;fill-rule:nonzero;stroke:none"
         id="path86" /><path
         d="m 2019.14,2723.42 c 0.01,-0.02 0.03,-0.04 0.04,-0.06 l 0.01,0.05 -0.05,0.01"
         style="fill:#d02a9d;fill-opacity:1;fill-rule:nonzero;stroke:none"
         id="path88" /><path
         d="m 1423.39,2828.1 -171.53,280.85 v 0 l 113.01,-617.27 h 0.01 l 165.8,160.75 v 0 l -107.29,175.67"
         style="fill:#b4118f;fill-opacity:1;fill-rule:nonzero;stroke:none"
         id="path90" /><path
         d="m 1364.88,2491.68 h -0.01 v 0 l -113.01,140.31 v -448.32 l 265.77,118.37 -152.75,189.64"
         style="fill:#d852b0;fill-opacity:1;fill-rule:nonzero;stroke:none"
         id="path92" /><path
         d="m 1251.86,3108.95 v -476.96 l 113.01,-140.31 z"
         style="fill:#d02a9d;fill-opacity:1;fill-rule:nonzero;stroke:none"
         id="path94" /><path
         d="m 1517.63,3034.67 -265.77,74.28 v 0 l 171.53,-280.85 94.24,206.57 v 0"
         style="fill:#d852b0;fill-opacity:1;fill-rule:nonzero;stroke:none"
         id="path96" /><path
         d="m 1803.21,3000.66 -285.58,34.01 v 0 l -94.24,-206.57 331.33,110.59 v 0 0 l 149.58,49.93 -101.09,12.04"
         style="fill:#e17bc4;fill-opacity:1;fill-rule:nonzero;stroke:none"
         id="path98" /><path
         d="M 1517.63,3034.67 Z"
         style="fill:#d02a9d;fill-opacity:1;fill-rule:nonzero;stroke:none"
         id="path100" /><path
         d="m 1517.63,3034.67 v 0 l 0.01,266.61 -265.78,-192.33 265.77,-74.28 v 0"
         style="fill:#d02a9d;fill-opacity:1;fill-rule:nonzero;stroke:none"
         id="path102" /><path
         d="m 1517.63,2302.04 v 0 0 0 0"
         style="fill:#d02a9d;fill-opacity:1;fill-rule:nonzero;stroke:none"
         id="path104" /><path
         d="M 1517.63,2302.04 Z"
         style="fill:#d02a9d;fill-opacity:1;fill-rule:nonzero;stroke:none"
         id="path106" /><path
         d="m 1391.05,1992.9 126.58,-173.49 v 482.63 z"
         style="fill:#d02a9d;fill-opacity:1;fill-rule:nonzero;stroke:none"
         id="path108" /><path
         d="m 1391.05,1992.9 -139.19,190.77 v -364.26 h 265.77 v 0 l -126.58,173.49"
         style="fill:#b4118f;fill-opacity:1;fill-rule:nonzero;stroke:none"
         id="path110" /><path
         d="M 1517.63,2302.04 Z"
         style="fill:#d02a9d;fill-opacity:1;fill-rule:nonzero;stroke:none"
         id="path112" /><path
         d="m 1517.63,2302.04 v 0 l -265.77,-118.37 v 0 l 139.19,-190.77 126.58,309.14"
         style="fill:#e17bc4;fill-opacity:1;fill-rule:nonzero;stroke:none"
         id="path114" /><path
         d="m 1251.87,3456.83 159.36,-232.55 -159.37,-115.33 z"
         style="fill:#d852b0;fill-opacity:1;fill-rule:nonzero;stroke:none"
         id="path116" /><path
         d="m 1517.64,3301.28 -265.77,155.55 159.36,-232.55 z"
         style="fill:#b4118f;fill-opacity:1;fill-rule:nonzero;stroke:none"
         id="path118" /><path
         d="m 1517.64,3684.38 -265.77,-227.55 113,227.55 z"
         style="fill:#721a5f;fill-opacity:1;fill-rule:nonzero;stroke:none"
         id="path120" /><path
         d="m 1517.64,3301.28 -126.37,274.91 126.37,108.19 z"
         style="fill:#d02a9d;fill-opacity:1;fill-rule:nonzero;stroke:none"
         id="path122" /><path
         d="m 1251.87,3684.38 v -227.55 l 113,227.55 z"
         style="fill:#d852b0;fill-opacity:1;fill-rule:nonzero;stroke:none"
         id="path124" /><path
         d="m 1517.64,3301.28 -126.37,274.91 -139.4,-119.36 z"
         style="fill:#d852b0;fill-opacity:1;fill-rule:nonzero;stroke:none"
         id="path126" /><path
         d="m 1517.64,3301.28 -126.37,274.91 126.37,108.19 -94.25,-113.77 94.25,-269.33"
         style="fill:#f4d2eb;fill-opacity:1;fill-rule:nonzero;stroke:none"
         id="path128" /><path
         d="m 1251.87,3456.83 265.77,-155.55 -247.98,170.79 z"
         style="fill:#331529;fill-opacity:1;fill-rule:nonzero;stroke:none"
         id="path130" /><path
         d="m 1251.87,3456.83 113,227.55 -70.96,-191.55 z"
         style="fill:#331529;fill-opacity:1;fill-rule:nonzero;stroke:none"
         id="path132" /><path
         d="m 1517.64,3301.28 -265.78,-192.33 0.01,25.73 z"
         style="fill:#331529;fill-opacity:1;fill-rule:nonzero;stroke:none"
         id="path134" /><path
         d="m 1423.39,2828.1 480.91,160.52 -456.5,-107.01 z"
         style="fill:#331529;fill-opacity:1;fill-rule:nonzero;stroke:none"
         id="path136" /><path
         d="m 2067.65,2242.85 v 69.25 l 261.41,326.3 z"
         style="fill:#331529;fill-opacity:1;fill-rule:nonzero;stroke:none"
         id="path138" /><path
         d="m 2209.07,2051.13 -25.11,34.05 145.1,553.22 z"
         style="fill:#f4d2eb;fill-opacity:1;fill-rule:nonzero;stroke:none"
         id="path140" /><path
         d="m 2019.19,2723.41 38.56,316.29 -22.57,-305.83 171.95,-61.87 -187.94,51.41"
         style="fill:#f4d2eb;fill-opacity:1;fill-rule:nonzero;stroke:none"
         id="path142" /><path
         d="m 1517.63,2302.04 -152.76,189.64 165.81,160.75 -127,-160.75 113.95,-189.64"
         style="fill:#f4d2eb;fill-opacity:1;fill-rule:nonzero;stroke:none"
         id="path144" /><path
         d="m 1251.86,2183.67 265.77,-364.26 h -46.37 z"
         style="fill:#f4d2eb;fill-opacity:1;fill-rule:nonzero;stroke:none"
         id="path146" /><path
         d="m 1517.63,2302.04 -265.77,329.95 228.14,-320.47 -228.14,-127.85 265.77,118.37"
         style="fill:#331529;fill-opacity:1;fill-rule:nonzero;stroke:none"
         id="path148" /><path
         d="m 1517.63,3034.67 438.17,-28.86 -51.5,-17.19 z"
         style="fill:#331529;fill-opacity:1;fill-rule:nonzero;stroke:none"
         id="path150" /><path
         d="m 1530.68,2652.43 -107.29,175.67 331.33,110.59 -288.12,-119.95 64.08,-166.31"
         style="fill:#f4d2eb;fill-opacity:1;fill-rule:nonzero;stroke:none"
         id="path152" /><path
         d="m 2057.75,3039.7 149.38,-367.7 32.06,-8.77 z"
         style="fill:#331529;fill-opacity:1;fill-rule:nonzero;stroke:none"
         id="path154" /><path
         d="m 2067.65,1819.41 141.42,231.72 -141.42,191.72 106.47,-191.72 -106.47,-231.72"
         style="fill:#331529;fill-opacity:1;fill-rule:nonzero;stroke:none"
         id="path156" /><path
         d="m 1251.86,3108.95 278.82,-456.52 -165.81,-160.75 129.69,160.68 -242.7,456.59"
         style="fill:#331529;fill-opacity:1;fill-rule:nonzero;stroke:none"
         id="path158" /><path
         d="m 1851.88,2836.22 -97.16,102.47 284.9,-47.65 -252,33.62 64.26,-88.44"
         style="fill:#331529;fill-opacity:1;fill-rule:nonzero;stroke:none"
         id="path160" /><path
         d="m 1251.87,3456.83 154.43,-225.34 -18.49,-11.59 z"
         style="fill:#f4d2eb;fill-opacity:1;fill-rule:nonzero;stroke:none"
         id="path162" /><path
         d="m 1517.63,3034.67 -94.24,-206.57 66.96,214.19 z"
         style="fill:#f4d2eb;fill-opacity:1;fill-rule:nonzero;stroke:none"
         id="path164" /><path
         d="m 2221.07,2503.61 107.99,134.79 -33.29,9.36 z"
         style="fill:#f4d2eb;fill-opacity:1;fill-rule:nonzero;stroke:none"
         id="path166" /><path
         d="m 2067.65,1819.41 265.77,435.47 -4.39,-56.69 z"
         style="fill:#f4d2eb;fill-opacity:1;fill-rule:nonzero;stroke:none"
         id="path168" /><path
         d="m 1364.87,2491.68 -113.01,617.27 0.01,-124.1 z"
         style="fill:#f4d2eb;fill-opacity:1;fill-rule:nonzero;stroke:none"
         id="path170" /><path
         d="M 3461.9,3108.95 3111.88,2212 l 231.16,592.36 z"
         style="fill:#100f0d;fill-opacity:1;fill-rule:nonzero;stroke:none"
         id="path172" /><path
         d="m 3024.91,1518.4 -55,329.93 -210.16,-532.71 408.71,312.58 -143.55,-109.8"
         style="fill:#2d1b43;fill-opacity:1;fill-rule:nonzero;stroke:none"
         id="path174" /><path
         d="m 3284.96,1925.79 v 435.52 L 3111.88,2212 3284.96,1925.79 v 0"
         style="fill:#5e2791;fill-opacity:1;fill-rule:nonzero;stroke:none"
         id="path176" /><path
         d="m 3542.4,2583.39 -41.84,273.17 247.58,252.39 H 3461.9 l 80.5,-525.56 v 0"
         style="fill:#8145a7;fill-opacity:1;fill-rule:nonzero;stroke:none"
         id="path178" /><path
         d="M 2761.85,3108.95 H 2475.6 l 218.14,-192.23 z"
         style="fill:#2d1b43;fill-opacity:1;fill-rule:nonzero;stroke:none"
         id="path180" /><path
         d="m 3111.88,2212 -200,512.5 v -389.4 z"
         style="fill:#2d1b43;fill-opacity:1;fill-rule:nonzero;stroke:none"
         id="path182" /><path
         d="m 2815.48,2569.44 -339.88,539.51 261.18,-666.09 z"
         style="fill:#5e2791;fill-opacity:1;fill-rule:nonzero;stroke:none"
         id="path184" /><path
         d="m 3168.46,1628.2 116.5,297.59 -173.08,-42.56 z"
         style="fill:#8145a7;fill-opacity:1;fill-rule:nonzero;stroke:none"
         id="path186" /><path
         d="M 3542.4,2583.39 Z"
         style="fill:#f14625;fill-opacity:1;fill-rule:nonzero;stroke:none"
         id="path188" /><path
         d="m 3542.4,2583.39 v 0 l -80.5,525.56 -118.86,-304.59 199.36,-220.97"
         style="fill:#44266c;fill-opacity:1;fill-rule:nonzero;stroke:none"
         id="path190" /><path
         d="m 3542.4,2583.39 v 0 l 205.74,525.56 z"
         style="fill:#f36445;fill-opacity:1;fill-rule:nonzero;stroke:none"
         id="path192" /><path
         d="m 3542.4,2583.39 205.74,525.56 -247.58,-252.39 z"
         style="fill:#5e2791;fill-opacity:1;fill-rule:nonzero;stroke:none"
         id="path194" /><path
         d="M 3542.4,2583.39 Z"
         style="fill:#f36445;fill-opacity:1;fill-rule:nonzero;stroke:none"
         id="path196" /><path
         d="M 3542.4,2583.39 3343.04,2804.36 3111.88,2212 3542.4,2583.39 v 0"
         style="fill:#a372c0;fill-opacity:1;fill-rule:nonzero;stroke:none"
         id="path198" /><path
         d="m 3284.96,1925.79 v 0 l 257.44,657.6 v 0 l -257.44,-657.6"
         style="fill:#b43821;fill-opacity:1;fill-rule:nonzero;stroke:none"
         id="path200" /><path
         d="m 3284.96,1925.79 257.44,657.6 -257.44,-222.08 z"
         style="fill:#2d1b43;fill-opacity:1;fill-rule:nonzero;stroke:none"
         id="path202" /><path
         d="M 3284.96,1925.79 Z"
         style="fill:#b43821;fill-opacity:1;fill-rule:nonzero;stroke:none"
         id="path204" /><path
         d="m 3111.88,2212 -141.97,-363.67 141.97,34.9 v 0 l 173.08,42.56 v 0 L 3111.88,2212"
         style="fill:#44266c;fill-opacity:1;fill-rule:nonzero;stroke:none"
         id="path206" /><path
         d="m 2759.75,1315.62 h 286.35 l 122.36,312.58 z"
         style="fill:#44266c;fill-opacity:1;fill-rule:nonzero;stroke:none"
         id="path208" /><path
         d="m 3024.91,1518.4 143.55,109.8 -56.58,255.03 v 0 l -86.97,-364.83"
         style="fill:#a372c0;fill-opacity:1;fill-rule:nonzero;stroke:none"
         id="path210" /><path
         d="M 3111.88,1883.23 Z"
         style="fill:#f36445;fill-opacity:1;fill-rule:nonzero;stroke:none"
         id="path212" /><path
         d="M 2736.78,2442.86 2969.91,1848.33 3111.88,2212 Z"
         style="fill:#5e2791;fill-opacity:1;fill-rule:nonzero;stroke:none"
         id="path214" /><path
         d="M 2911.88,2724.5 Z"
         style="fill:#b43821;fill-opacity:1;fill-rule:nonzero;stroke:none"
         id="path216" /><path
         d="m 2815.48,2569.44 v 0 l -78.7,-126.58 175.1,-107.76 v 389.4 0 l -96.4,-155.06"
         style="fill:#a372c0;fill-opacity:1;fill-rule:nonzero;stroke:none"
         id="path218" /><path
         d="M 2911.88,2724.5 Z"
         style="fill:#f14625;fill-opacity:1;fill-rule:nonzero;stroke:none"
         id="path220" /><path
         d="m 2911.88,2724.5 v 0 l -218.14,192.22 -218.14,192.23 339.88,-539.51 96.4,155.06"
         style="fill:#44266c;fill-opacity:1;fill-rule:nonzero;stroke:none"
         id="path222" /><path
         d="M 2911.88,2724.5 Z"
         style="fill:#f14625;fill-opacity:1;fill-rule:nonzero;stroke:none"
         id="path224" /><path
         d="m 2911.88,2724.5 v 0 l -96.4,-155.06 v 0 l 96.4,155.06"
         style="fill:#f14625;fill-opacity:1;fill-rule:nonzero;stroke:none"
         id="path226" /><path
         d="m 2911.88,2724.5 -150.03,384.45 z"
         style="fill:#f36445;fill-opacity:1;fill-rule:nonzero;stroke:none"
         id="path228" /><path
         d="m 2911.88,2724.5 -150.03,384.45 -68.11,-192.23 z"
         style="fill:#8145a7;fill-opacity:1;fill-rule:nonzero;stroke:none"
         id="path230" /><path
         d="m 3111.88,1883.23 -141.97,-34.9 55,-329.93 z"
         style="fill:#5e2791;fill-opacity:1;fill-rule:nonzero;stroke:none"
         id="path232" /><path
         d="m 3111.88,2212 -375.1,230.86 175.1,281.64 -136.26,-271.19 336.26,-241.31"
         style="fill:#1b1520;fill-opacity:1;fill-rule:nonzero;stroke:none"
         id="path234" /><path
         d="m 2761.85,3108.95 -68.11,-192.23 -218.14,192.23 198.65,-141.83 87.6,141.83"
         style="fill:#1b1520;fill-opacity:1;fill-rule:nonzero;stroke:none"
         id="path236" /><path
         d="m 3542.4,2583.39 -80.5,525.56 h 38.66 z"
         style="fill:#1b1520;fill-opacity:1;fill-rule:nonzero;stroke:none"
         id="path238" /><path
         d="m 3111.88,2212 430.52,371.39 -373.94,-379.54 116.5,-278.06 -173.08,286.21"
         style="fill:#1b1520;fill-opacity:1;fill-rule:nonzero;stroke:none"
         id="path240" /><path
         d="m 2759.75,1315.62 408.71,312.58 -7.56,34.1 z"
         style="fill:#1b1520;fill-opacity:1;fill-rule:nonzero;stroke:none"
         id="path242" /><path
         d="m 3748.14,3108.95 -229,-233.44 -3.28,41.21 z"
         style="fill:#e3d2ec;fill-opacity:1;fill-rule:nonzero;stroke:none"
         id="path244" /><path
         d="m 3284.96,1925.79 v 396.3 l 27.42,27.83 z"
         style="fill:#e3d2ec;fill-opacity:1;fill-rule:nonzero;stroke:none"
         id="path246" /><path
         d="m 2759.75,1315.62 395.22,278.12 13.49,34.46 z"
         style="fill:#e3d2ec;fill-opacity:1;fill-rule:nonzero;stroke:none"
         id="path248" /><path
         d="m 2969.91,1848.33 141.97,34.9 -79.06,-331.61 56.8,309.22 -119.71,-12.51"
         style="fill:#e3d2ec;fill-opacity:1;fill-rule:nonzero;stroke:none"
         id="path250" /><path
         d="m 2475.6,3108.95 339.88,-539.51 21.38,34.4 z"
         style="fill:#e3d2ec;fill-opacity:1;fill-rule:nonzero;stroke:none"
         id="path252" /><path
         d="m 2969.91,1848.33 141.97,363.67 -37.83,23.28 z"
         style="fill:#e3d2ec;fill-opacity:1;fill-rule:nonzero;stroke:none"
         id="path254" /><path
         d="m 3542.4,2583.39 -199.36,220.97 -11.1,-28.45 z"
         style="fill:#e3d2ec;fill-opacity:1;fill-rule:nonzero;stroke:none"
         id="path256" /><path
         d="m 2693.74,2916.72 218.14,-192.22 -24.56,62.94 z"
         style="fill:#e3d2ec;fill-opacity:1;fill-rule:nonzero;stroke:none"
         id="path258" /></g></g></svg>
