<?xml version="1.0" standalone="no"?>
<!DOCTYPE svg PUBLIC "-//W3C//DTD SVG 20010904//EN"
 "http://www.w3.org/TR/2001/REC-SVG-20010904/DTD/svg10.dtd">
<svg version="1.0" xmlns="http://www.w3.org/2000/svg"
 width="1279.000000pt" height="1280.000000pt" viewBox="0 0 1279.000000 1280.000000"
 preserveAspectRatio="xMidYMid meet">
<metadata>
Created by potrace 1.16, written by Peter Selinger 2001-2019
</metadata>
<g transform="translate(0.000000,1280.000000) scale(0.100000,-0.100000)"
fill="#000000" stroke="none">
<path d="M2 9818 c1 -1641 3 -2963 5 -2938 74 983 389 1975 891 2810 1057
1756 2859 2895 4887 3090 61 5 126 12 145 13 19 2 -1307 5 -2947 5 l-2983 2 2
-2982z"/>
<path d="M6860 12793 c19 -1 85 -8 145 -13 1246 -120 2416 -594 3390 -1375
208 -167 319 -267 536 -484 1070 -1073 1715 -2464 1848 -3991 5 -53 9 1230 10
2888 l1 2982 -2982 -2 c-1641 0 -2967 -3 -2948 -5z"/>
<path d="M6063 12773 l-33 -4 0 -2525 c0 -2017 -3 -2524 -12 -2518 -7 4 5 -13
28 -37 70 -75 178 -209 266 -329 l84 -116 49 70 c160 224 382 476 562 638 552
496 1153 741 1818 741 291 1 520 -35 784 -122 602 -199 1099 -627 1371 -1184
240 -489 292 -1039 150 -1573 -213 -801 -887 -1440 -1725 -1637 -168 -40 -303
-57 -490 -64 -925 -32 -1775 435 -2440 1341 -43 59 -81 103 -85 99 -4 -4 -46
-61 -93 -126 l-87 -117 0 -2637 c0 -2094 3 -2639 13 -2646 14 -10 467 -1 658
13 880 67 1755 321 2513 727 939 504 1730 1219 2313 2093 840 1258 1201 2751
1032 4265 -125 1122 -548 2187 -1231 3100 -601 805 -1398 1466 -2293 1905
-706 346 -1407 544 -2215 626 -150 15 -862 28 -937 17z m144 -3951 c-1 -724
-2 -131 -2 1318 0 1449 1 2042 2 1317 2 -724 2 -1910 0 -2635z"/>
<path d="M5880 12760 c-30 -4 -47 -7 -37 -8 16 -2 17 -123 17 -2434 l0 -2433
70 -70 70 -70 2 2513 3 2512 -35 -2 c-19 -1 -60 -4 -90 -8z"/>
<path d="M5748 12743 l22 -4 0 -2381 0 -2381 -22 19 c-13 10 -5 -1 17 -24 21
-23 39 -42 40 -42 0 0 -1 1084 -3 2410 l-2 2410 -38 -1 c-23 -1 -28 -3 -14 -6z"/>
<path d="M5590 10429 l0 -2301 -50 37 c-81 59 -57 34 33 -35 45 -35 74 -55 65
-44 -17 19 -18 145 -18 2332 0 2048 -2 2312 -15 2312 -13 0 -15 -262 -15
-2301z"/>
<path d="M5410 10485 c0 -2223 0 -2226 -20 -2215 -40 21 -19 2 38 -34 31 -20
47 -28 35 -17 l-23 19 0 2230 c0 1775 3 2231 13 2235 6 3 0 6 -15 6 l-28 1 0
-2225z"/>
<path d="M5185 12665 c-33 -7 -54 -13 -47 -14 9 -1 12 -432 12 -2122 0 -1693
-3 -2119 -12 -2113 -9 5 -10 4 -3 -3 16 -15 152 -87 138 -72 -10 10 -13 459
-13 2176 0 1190 -3 2162 -7 2162 -5 -1 -35 -7 -68 -14z"/>
<path d="M5055 12640 c-16 -4 -42 -11 -57 -14 l-28 -6 -2 -2065 -3 -2064 35
-17 c19 -9 49 -22 65 -29 l30 -13 0 2109 c0 1160 -2 2109 -5 2108 -3 0 -18 -4
-35 -9z"/>
<path d="M4850 12594 l-55 -15 3 -2004 c2 -1906 1 -2005 -15 -2005 -10 -1 23
-16 72 -35 101 -39 106 -40 82 -22 -16 11 -17 142 -15 2055 2 1357 0 2042 -7
2041 -5 -1 -35 -7 -65 -15z"/>
<path d="M4710 12553 c0 -5 0 -896 0 -1980 0 -1874 -1 -1973 -17 -1974 -10 0
0 -7 21 -15 22 -8 42 -12 44 -9 3 3 0 5 -6 5 -9 0 -12 480 -12 1990 0 1762 -2
1990 -15 1990 -8 0 -15 -3 -15 -7z"/>
<path d="M4528 10571 l-3 -1939 34 -6 c19 -3 37 -3 40 -1 2 3 -3 5 -12 5 -16
0 -17 136 -17 1940 0 1932 0 1940 -20 1940 -20 0 -20 -9 -22 -1939z"/>
<path d="M4368 12453 c-17 -4 -18 -103 -18 -1889 0 -1877 0 -1884 -20 -1884
-20 0 -20 7 -20 1876 0 1707 -1 1876 -16 1870 -9 -3 -20 -6 -25 -6 -5 0 -9
-739 -9 -1865 0 -1769 -1 -1865 -17 -1866 -14 -1 125 -26 157 -29 3 0 4 855 2
1900 -1 1045 -5 1899 -10 1899 -4 -1 -15 -3 -24 -6z"/>
<path d="M3960 12299 c-52 -22 -106 -45 -120 -50 l-25 -9 3 -1770 2 -1770 128
0 127 0 -3 1820 c-1 1001 -5 1820 -10 1820 -4 -1 -50 -19 -102 -41z"/>
<path d="M3660 12166 c-826 -390 -1580 -975 -2177 -1691 -459 -551 -830 -1195
-1083 -1885 -431 -1173 -502 -2494 -200 -3715 436 -1762 1575 -3228 3180
-4095 129 -70 395 -200 409 -200 3 0 6 794 6 1765 l0 1764 -35 5 c-19 3 -62 8
-95 11 -104 11 -310 54 -428 90 -529 160 -992 505 -1291 962 -231 352 -350
732 -363 1158 -13 441 93 849 319 1225 172 286 416 540 703 733 229 153 558
293 815 346 142 30 285 51 345 51 29 0 45 4 37 8 -10 7 -12 365 -10 1770 2
969 3 1762 3 1762 0 -1 -61 -29 -135 -64z"/>
<path d="M3820 7255 c0 -543 -2 -615 -15 -615 -14 0 -15 71 -13 611 l3 611
-63 -7 c-35 -4 -115 -20 -178 -36 -381 -96 -704 -323 -916 -643 -238 -360
-298 -809 -162 -1216 109 -324 346 -613 654 -799 163 -98 371 -173 575 -206
99 -16 390 -19 465 -5 36 7 30 8 -27 3 l-73 -5 0 601 0 601 95 0 95 0 0 -590
c0 -544 -1 -590 -17 -590 -9 0 -14 -2 -11 -5 3 -3 23 -3 44 1 l39 6 -3 589
c-2 585 -2 589 18 589 20 0 20 -5 20 -580 0 -435 -3 -580 -12 -580 -6 0 -9 -2
-6 -5 3 -3 19 -2 36 1 l32 7 0 578 0 579 65 0 65 0 0 -555 c0 -416 -3 -555
-12 -555 -6 0 -9 -2 -6 -5 2 -3 18 -1 34 5 l29 10 -3 550 -2 550 70 0 70 0 0
-515 0 -514 -27 -15 c-16 -8 -23 -15 -18 -15 15 0 102 48 87 49 -10 0 -12 255
-10 1270 3 1261 3 1269 -17 1278 -20 9 -20 6 -17 -519 l2 -529 -70 0 -70 0 0
559 0 559 -31 11 c-39 14 -50 14 -26 0 16 -9 17 -47 17 -569 l0 -560 -65 0
-65 0 0 580 c0 457 3 580 13 581 17 1 -24 17 -45 18 -17 1 -18 -33 -18 -589 0
-583 0 -590 -20 -590 -20 0 -20 7 -20 590 0 555 1 590 18 591 20 1 -22 16 -50
18 -17 1 -18 -34 -18 -599 l0 -600 -95 0 -95 0 0 609 c0 478 3 610 13 614 6 3
-50 6 -125 6 l-138 1 0 -615z m910 -860 l0 -235 -717 2 -718 3 -3 233 -2 232
720 0 720 0 0 -235z m-910 -845 c0 -527 -2 -600 -15 -600 -13 0 -15 73 -15
600 0 527 2 600 15 600 13 0 15 -73 15 -600z"/>
<path d="M8655 7864 c-376 -52 -680 -186 -984 -433 -207 -166 -424 -409 -597
-666 -89 -131 -214 -343 -214 -361 0 -20 88 -172 186 -321 404 -613 912 -1004
1446 -1113 200 -41 477 -43 667 -4 289 59 567 204 779 408 223 215 360 461
424 759 30 144 31 400 0 539 -117 533 -489 941 -1020 1118 -168 56 -267 72
-477 75 -99 2 -193 1 -210 -1z m343 -991 l2 -243 240 0 240 0 0 -235 0 -235
-240 0 -240 0 0 -240 0 -240 -235 0 -235 0 0 240 0 240 -242 2 -243 3 -3 233
-2 232 245 0 245 0 0 245 0 245 233 -2 232 -3 3 -242z"/>
<path d="M4788 7650 c9 -11 12 -276 12 -1253 l0 -1238 48 26 c40 22 119 78 85
60 -10 -5 -13 229 -13 1155 0 1029 2 1161 15 1156 28 -10 15 2 -32 31 -85 53
-128 76 -115 63z"/>
<path d="M4968 6413 c2 -901 0 -1139 -10 -1151 -16 -20 96 58 137 96 17 15 26
24 21 20 -6 -5 -14 -8 -18 -8 -5 0 -8 469 -8 1042 l0 1043 -37 28 c-21 16 -49
37 -63 47 l-25 18 3 -1135z"/>
<path d="M5133 7414 c16 -19 17 -89 19 -1017 l3 -996 95 88 c84 78 269 275
212 227 l-22 -19 0 707 c0 563 3 706 13 700 6 -4 -19 25 -58 65 -38 39 -72 71
-74 71 -3 0 16 -22 42 -48 l47 -48 0 -743 0 -744 -75 -76 -75 -76 0 900 0 901
-37 35 c-65 60 -108 95 -90 73z"/>
<path d="M5590 6402 c0 -408 -3 -531 -12 -542 -11 -12 -10 -12 2 -2 9 6 31 33
49 59 18 26 23 37 12 24 l-21 -23 0 482 c0 454 1 482 17 469 9 -8 4 3 -11 24
-16 20 -30 37 -32 37 -2 0 -4 -238 -4 -528z"/>
<path d="M5768 6415 c2 -181 -1 -282 -8 -295 -21 -40 -1 -19 30 31 17 28 26
48 20 44 -7 -4 -10 61 -10 206 0 195 1 210 16 198 9 -8 2 10 -16 39 -17 28
-32 52 -33 52 -1 0 -1 -124 1 -275z"/>
<path d="M1 2988 l-1 -2988 3023 2 c1662 1 3000 3 2972 5 -1566 98 -3022 758
-4135 1873 -452 453 -853 1001 -1146 1565 -391 754 -628 1573 -703 2430 -5 59
-9 -1117 -10 -2887z"/>
<path d="M12780 5912 c0 -123 -66 -584 -119 -833 -166 -774 -471 -1510 -899
-2164 -1016 -1557 -2642 -2597 -4460 -2854 -114 -16 -270 -34 -347 -40 -77 -6
-156 -13 -175 -15 -19 -1 1325 -4 2988 -4 l3022 -2 0 2980 c0 1639 -2 2980 -5
2980 -3 0 -5 -21 -5 -48z"/>
<path d="M6112 5195 l-82 -95 0 -2535 0 -2535 85 0 85 0 0 2630 c0 1447 -1
2630 -3 2630 -1 0 -40 -43 -85 -95z"/>
<path d="M5873 4940 c-73 -70 -177 -164 -231 -207 -127 -101 -160 -129 -148
-122 6 3 30 20 54 38 l42 33 0 -2306 c0 -2190 1 -2306 18 -2306 16 0 17 116
15 2317 l-2 2318 74 63 75 62 0 -2390 0 -2390 28 1 c15 0 21 3 15 6 -10 4 -13
493 -13 2402 l0 2397 30 29 30 29 0 -2437 0 -2437 70 0 70 0 2 2515 c2 1383 3
2515 3 2515 0 -1 -60 -59 -132 -130z"/>
<path d="M5417 4566 c-53 -37 -77 -59 -34 -33 l27 17 0 -2220 0 -2220 -22 -1
c-13 -1 1 -5 31 -10 30 -5 60 -7 65 -5 6 2 -1 5 -16 5 l-28 1 0 2232 c0 2062
1 2233 17 2250 22 25 16 22 -40 -16z"/>
<path d="M5100 4382 c-91 -46 -157 -82 -147 -79 16 6 17 -96 17 -2057 l0
-2063 57 -12 c31 -6 59 -11 62 -11 3 0 5 947 3 2103 l-2 2104 25 11 c14 7 28
12 30 12 3 0 5 -955 5 -2123 l0 -2124 55 -10 55 -10 2 2174 c2 1195 3 2172 3
2172 0 -1 -74 -40 -165 -87z"/>
<path d="M4845 4269 c-38 -15 -64 -28 -57 -29 9 0 12 -408 12 -2008 l0 -2008
63 -15 62 -15 0 2053 c0 1129 -2 2053 -5 2052 -3 -1 -36 -14 -75 -30z"/>
<path d="M4720 4225 c-19 -7 -29 -14 -22 -14 9 -1 12 -403 12 -1976 0 -1573
-3 -1975 -12 -1976 -14 0 20 -17 37 -18 7 -1 9 666 7 1986 -2 1861 -1 1989 15
2001 21 15 8 14 -37 -3z"/>
<path d="M4510 4169 c-57 -14 -64 -17 -27 -13 l47 5 -2 -1930 c-2 -1062 0
-1931 4 -1931 3 0 13 -3 22 -6 15 -6 16 169 16 1934 0 1838 1 1942 18 1951 22
14 12 12 -78 -10z"/>
<path d="M4355 4140 c-16 -4 -24 -8 -17 -9 9 -1 12 -385 12 -1886 l0 -1885 26
-10 c14 -6 26 -10 27 -10 1 0 1 855 -1 1899 -2 1804 -1 1900 15 1904 12 3 9 5
-7 5 -14 0 -38 -4 -55 -8z"/>
<path d="M4258 2260 l-3 -1870 29 -10 c16 -5 29 -10 30 -10 1 0 0 846 -2 1880
l-2 1880 -25 0 -25 0 -2 -1870z"/>
<path d="M3820 2336 l0 -1773 125 -52 c68 -28 126 -51 127 -51 2 0 2 819 0
1819 l-2 1820 27 4 c16 2 -41 5 -124 6 l-153 1 0 -1774z"/>
</g>
</svg>
