<?xml version="1.0" standalone="yes"?>
<svg xmlns="http://www.w3.org/2000/svg" width="61" height="61">
<path style="fill:#010101; stroke:none;" d="M0 0L0 25L1 25C2.80669 12.9465 12.9465 2.80669 25 1L0 0z"/>
<path style="fill:#0b989e; stroke:none;" d="M25 0.467594C-13.8621 7.75174 -2.6165 67.768 36 60.5324C74.9675 53.231 63.642 -6.77529 25 0.467594z"/>
<path style="fill:#010101; stroke:none;" d="M36 0L36 1C48.0535 2.80669 58.1933 12.9465 60 25L61 25L61 0L36 0z"/>
<path style="fill:#5db9bc; stroke:none;" d="M18 2L19 3L18 2M42 2L43 3L42 2z"/>
<path style="fill:#92d0d2; stroke:none;" d="M14 4L15 5L14 4M46 4L47 5L46 4z"/>
<path style="fill:#5db9bc; stroke:none;" d="M10 7L11 8L10 7M50 7L51 8L50 7M7 10L8 11L7 10M53 10L54 11L53 10z"/>
<path style="fill:#92d0d2; stroke:none;" d="M4 14L5 15L4 14z"/>
<path style="fill:#5db9bc; stroke:none;" d="M56 14L57 15L56 14M2 18L3 19L2 18z"/>
<path style="fill:#feffff; stroke:none;" d="M30 34L31 34C35.7361 43.6281 52.5504 43.4913 52.9406 31C53.3486 17.9385 36.069 16.6952 31 27C28.9919 24.5015 27.0514 22.2563 23.9961 21.0093C2.64821 12.296 4.69096 50.0169 24.9807 39.5448C27.5524 38.2174 28.7758 36.4887 30 34z"/>
<path style="fill:#92d0d2; stroke:none;" d="M23 20L24 21L23 20z"/>
<path style="fill:#5db9bc; stroke:none;" d="M37 20L38 21L37 20z"/>
<path style="fill:#0b989e; stroke:none;" d="M18.0046 23.8773C8.96231 25.0328 11.0036 37.8467 20 36.8326C30.3406 35.6669 27.4188 22.6743 18.0046 23.8773z"/>
<path style="fill:#5db9bc; stroke:none;" d="M19 23L20 24L19 23M41 23L42 24L41 23z"/>
<path style="fill:#0b989e; stroke:none;" d="M41.9992 23.8272C32.0905 23.96 31.9099 36.8827 41.9992 36.8827C51.1701 36.8827 50.9838 23.7067 41.9992 23.8272z"/>
<path style="fill:#92d0d2; stroke:none;" d="M25 26L26 27L25 26z"/>
<path style="fill:#5db9bc; stroke:none;" d="M30 26L31 27L30 26z"/>
<path style="fill:#92d0d2; stroke:none;" d="M35 26L36 27L35 26z"/>
<path style="fill:#feffff; stroke:none;" d="M41 27L38 29L38 32L41 34L42 34L43 34L43 27L41 27z"/>
<path style="fill:#92d0d2; stroke:none;" d="M11 29L12 30L11 29z"/>
<path style="fill:#feffff; stroke:none;" d="M16 29L16 32L23 32L23 29L16 29z"/>
<path style="fill:#92d0d2; stroke:none;" d="M49 29L50 30L49 29M11 31L12 32L11 31M49 31L50 32L49 31z"/>
<path style="fill:#010101; stroke:none;" d="M0 36L0 61L25 61L25 60C10.7295 57.861 6.09143 47.1904 0 36M60 36C58.1933 48.0535 48.0535 58.1933 36 60L36 61L61 61L60 36z"/>
<path style="fill:#5db9bc; stroke:none;" d="M18 37L19 38L18 37z"/>
<path style="fill:#92d0d2; stroke:none;" d="M19 37L20 38L19 37M41 37L42 38L41 37z"/>
<path style="fill:#5db9bc; stroke:none;" d="M42 37L43 38L42 37z"/>
<path style="fill:#92d0d2; stroke:none;" d="M12 39L13 40L12 39M48 39L49 40L48 39z"/>
<path style="fill:#5db9bc; stroke:none;" d="M2 42L3 43L2 42z"/>
<path style="fill:#92d0d2; stroke:none;" d="M4 46L5 47L4 46M7 50L8 51L7 50z"/>
<path style="fill:#5db9bc; stroke:none;" d="M53 50L54 51L53 50z"/>
<path style="fill:#92d0d2; stroke:none;" d="M10 53L11 54L10 53z"/>
<path style="fill:#5db9bc; stroke:none;" d="M50 53L51 54L50 53z"/>
<path style="fill:#92d0d2; stroke:none;" d="M14 56L15 57L14 56z"/>
<path style="fill:#5db9bc; stroke:none;" d="M18 58L19 59L18 58M42 58L43 59L42 58z"/>
</svg>
