<?xml version="1.0" standalone="yes"?>
<svg xmlns="http://www.w3.org/2000/svg" width="61" height="61">
<path style="fill:#010101; stroke:none;" d="M0 0L0 61L28 61L28 60C21.043 56.3357 9.52089 52.0579 4.74228 45.6713C2.17833 42.2446 3 37.0189 3 33C3 28.1949 1.86318 21.6091 3.74228 17.0934C6.67518 10.0452 21.3768 4.09593 28 1L0 0z"/>
<path style="fill:#669bd3; stroke:none;" d="M4 46L16 41C10.0806 29.239 14.4969 13.1867 30 12.7292C37.349 12.5123 40.6891 19.2235 47 19.9792C50.2571 20.3692 54.0996 17.2495 57 16L57 14C49.6049 10.0641 39.4919 0.742207 31 0.321758C26.4162 0.0948067 21.7884 3.82272 18 6C13.7184 8.46071 6.83078 10.9483 4.17901 15.3287C0.458592 21.4744 2.02692 39.3248 4 46z"/>
<path style="fill:#010101; stroke:none;" d="M33 0L33 1C39.6232 4.09593 54.3248 10.0452 57.2577 17.0934C59.1368 21.6091 58 28.1949 58 33C58 37.0189 58.8217 42.2446 56.2577 45.6713C51.4791 52.0579 39.957 56.3357 33 60L33 61L61 61L61 0L33 0z"/>
<path style="fill:#0101ff; stroke:none;" d="M24 2L25 3L24 2z"/>
<path style="fill:#fcfdfe; stroke:none;" d="M46 39C38.4883 35.0957 35.7411 40.5739 29.0008 38.9174C20.825 36.9082 20.056 26.9239 26.9799 22.9776C33.0286 19.5302 38.7095 25.7893 46 22C38.0243 5.05003 11.8852 12.7617 12.4599 31C13.0119 48.5196 38.225 55.3174 46 39z"/>
<path style="fill:#024d8e; stroke:none;" d="M23 35L23 36L46 39C41.8969 44.7728 35.5309 49.6786 28 48.2801C17.5331 46.3364 13.4743 35.8659 4 47C11.6134 51.0521 20.4623 58.976 29 60.5378C33.64 61.3866 38.2019 57.7559 42 55.5787C46.5281 52.983 54.0235 50.2925 56.821 45.6713C60.9112 38.9148 58 23.7757 58 16C46.435 18.0871 32.5084 28.2098 23 35z"/>
<path style="fill:#669bd3; stroke:none;" d="M22 35L38 26C30.0074 16.318 21.1748 25.0185 22 35M45.6667 27.3333L46.3333 27.6667L45.6667 27.3333M52.6667 27.3333L53.3333 27.6667L52.6667 27.3333z"/>
<path style="fill:#fcfdfe; stroke:none;" d="M45 28L43 30L43 31L45 33L46 33L47 33L49 31L49 30L47 28L45 28M52 28L50 30L50 31L52 33L53 33L54 33L56 31L56 30L54 28L52 28z"/>
<path style="fill:#669bd3; stroke:none;" d="M43.6667 29.3333L44.3333 29.6667L43.6667 29.3333M47.6667 29.3333L48.3333 29.6667L47.6667 29.3333M50.6667 29.3333L51.3333 29.6667L50.6667 29.3333M54.6667 29.3333L55.3333 29.6667L54.6667 29.3333M43.6667 31.3333L44.3333 31.6667L43.6667 31.3333M47.6667 31.3333L48.3333 31.6667L47.6667 31.3333M50.6667 31.3333L51.3333 31.6667L50.6667 31.3333M54.6667 31.3333L55.3333 31.6667L54.6667 31.3333M45.6667 33.3333L46.3333 33.6667L45.6667 33.3333M52.6667 33.3333L53.3333 33.6667L52.6667 33.3333M29 39L30 40L29 39M31 39L32 40L31 39M20 45L21 46L20 45M40 45L41 46L40 45M28.6667 48.3333L29.3333 48.6667L28.6667 48.3333M31.6667 48.3333L32.3333 48.6667L31.6667 48.3333z"/>
</svg>
