<?xml version="1.0" standalone="no"?>
<!DOCTYPE svg PUBLIC "-//W3C//DTD SVG 20010904//EN"
 "http://www.w3.org/TR/2001/REC-SVG-20010904/DTD/svg10.dtd">
<svg version="1.0" xmlns="http://www.w3.org/2000/svg"
 width="1138.000000pt" height="1280.000000pt" viewBox="0 0 1138.000000 1280.000000"
 preserveAspectRatio="xMidYMid meet">
<metadata>
Created by potrace 1.16, written by Peter Selinger 2001-2019
</metadata>
<g transform="translate(0.000000,1280.000000) scale(0.100000,-0.100000)"
fill="#000000" stroke="none">
<path d="M1 11013 c0 -1548 2 -1779 14 -1723 49 226 146 404 300 549 122 114
-121 -29 2680 1581 644 370 1384 797 1645 948 261 151 516 295 566 318 98 47
239 89 349 103 42 5 -1042 9 -2742 10 l-2813 1 1 -1787z"/>
<path d="M5805 12789 c189 -24 312 -73 608 -244 1816 -1043 4454 -2566 4500
-2597 88 -60 207 -178 266 -262 l51 -74 -1118 -643 c-614 -353 -1142 -659
-1172 -680 -63 -42 -1578 -914 -1619 -932 -14 -6 -384 -217 -821 -468 -437
-251 -1162 -667 -1610 -924 -448 -258 -821 -473 -828 -480 -23 -21 128 -235
267 -379 676 -701 1774 -770 2531 -159 150 121 326 322 416 472 20 34 41 61
46 61 5 0 376 -212 823 -472 l815 -471 -26 -46 c-15 -25 -68 -109 -119 -186
-549 -824 -1419 -1406 -2390 -1599 -723 -143 -1450 -78 -2135 191 -739 291
-1396 839 -1813 1513 -39 63 -72 116 -73 118 -3 5 -2268 -1299 -2275 -1310
-14 -21 -95 199 -117 317 -6 32 -10 -595 -11 -1742 l-1 -1793 5690 0 5690 0 0
6400 0 6400 -2822 -1 c-1688 -1 -2795 -5 -2753 -10z m3245 -5944 l0 -215 215
0 215 0 0 -220 0 -220 -215 0 -215 0 0 -215 0 -215 -220 0 -220 0 0 215 0 215
-215 0 -215 0 0 220 0 220 215 0 215 0 0 215 0 215 220 0 220 0 0 -215z m1580
0 l0 -215 215 0 215 0 0 -220 0 -220 -215 0 -215 0 0 -215 0 -215 -220 0 -220
0 0 215 0 215 -215 0 -215 0 0 220 0 220 215 0 215 0 0 215 0 215 220 0 220 0
0 -215z"/>
</g>
</svg>
