<?xml version="1.0" standalone="yes"?>
<svg xmlns="http://www.w3.org/2000/svg" width="61" height="67">
<path style="fill:#010101; stroke:none;" d="M0 0L0 16L28 1L0 0z"/>
<path style="fill:#659bd3; stroke:none;" d="M0 50C3.08518 48.8768 8.12621 47.2517 9.30324 43.787C11.3303 37.8202 7.07666 31.7364 10.189 25C17.971 8.15687 38.7846 7.61964 49 22L60 17L60 15C51.1575 11.299 40.6024 1.05572 31 0.40741C26.2713 0.08815 20.929 4.35571 17 6.57562C12.4361 9.15423 3.91236 11.8666 1.02778 16.3904C-3.46137 23.4307 0 41.7059 0 50z"/>
<path style="fill:#010101; stroke:none;" d="M33 0L33 1L60 17L61 17L61 0L33 0z"/>
<path style="fill:#feffff; stroke:none;" d="M50 44C47.0809 42.7428 43.2996 39.7088 40 40.4275C35.12 41.4904 32.5497 46.2374 27.0008 43.6674C17.1286 39.0952 17.6058 25.1214 29 22.9892C37.3214 21.432 39.9818 27.7181 49 23C43.1039 2.05195 12.2926 11.5731 8.51852 29C3.21989 53.4669 38.4878 66.1279 50 44z"/>
<path style="fill:#014d8f; stroke:none;" d="M21 38C26.2545 48.6582 32.7347 41.8917 40.5756 40.6327C43.4944 40.1641 47.2287 43.1228 50 44C38.5873 58.9375 22.4127 58.9375 11 44L1 50L1 51C7.72316 55.7871 22.5338 66.9355 31 66.3966C36.7689 66.0294 43.1217 60.9334 48 58.1505C51.8276 55.9669 57.7385 53.9238 59.9722 49.8951C64.2057 42.2594 61 25.66 61 17C47.3892 19.4562 33.2453 31.557 21 38z"/>
<path style="fill:#659bd3; stroke:none;" d="M20 39L40 28C30.6275 16.1398 17.6456 26.1267 20 39M47 23L48 24L47 23M44 41L45 42L44 41M25 43L26 44L25 43M35 43L36 44L35 43M28 44L29 45L28 44M32 44L33 45L32 44z"/>
<path style="fill:#010101; stroke:none;" d="M0 50L0 67L29 67L29 66L0 50M60 50L33 66L33 67L61 67L60 50z"/>
<path style="fill:#659bd3; stroke:none;" d="M20 53L21 54L20 53M40 53L41 54L40 53M26 55L27 56L26 55M34 55L35 56L34 55z"/>
<path style="fill:#010181; stroke:none;" d="M50 56L51 57L50 56M19 61L20 62L19 61M32 66L33 67L32 66z"/>
</svg>
