<?xml version="1.0" standalone="no"?>
<!DOCTYPE svg PUBLIC "-//W3C//DTD SVG 20010904//EN"
 "http://www.w3.org/TR/2001/REC-SVG-20010904/DTD/svg10.dtd">
<svg version="1.0" xmlns="http://www.w3.org/2000/svg"
 width="512.000000pt" height="512.000000pt" viewBox="0 0 512.000000 512.000000"
 preserveAspectRatio="xMidYMid meet">
<metadata>
Created by potrace 1.16, written by Peter Selinger 2001-2019
</metadata>
<g transform="translate(0.000000,512.000000) scale(0.100000,-0.100000)"
fill="#000000" stroke="none">
<path d="M2500 4071 c-47 -10 -31 -1 -650 -357 -301 -173 -561 -328 -580 -346
-73 -72 -70 -33 -70 -807 0 -518 3 -704 12 -735 24 -80 70 -111 662 -451 307
-176 572 -325 590 -332 43 -16 126 -16 173 1 62 22 1154 653 1191 689 19 18
43 50 55 72 22 40 22 45 25 724 3 778 5 759 -71 834 -56 55 -1162 691 -1227
706 -50 12 -60 12 -110 2z m305 -655 c155 -47 296 -134 406 -254 67 -71 122
-153 111 -164 -11 -11 -372 -218 -381 -218 -4 0 -23 22 -43 49 -45 59 -142
126 -217 148 -78 22 -201 20 -273 -5 -190 -68 -308 -246 -295 -446 9 -138 66
-248 172 -328 85 -65 143 -83 270 -83 107 0 112 1 186 37 56 27 92 54 133 98
31 34 56 65 56 71 0 5 5 9 11 9 12 0 357 -197 378 -216 31 -28 -136 -221 -268
-308 -157 -105 -309 -150 -501 -150 -135 1 -214 15 -329 61 -355 142 -591 509
-567 883 24 375 265 689 623 809 98 33 158 40 303 37 111 -3 151 -8 225 -30z
m621 -603 c-4 -21 -9 -46 -12 -55 -5 -16 2 -18 54 -18 l59 0 9 53 9 52 41 3
42 3 -9 -43 c-12 -65 -12 -68 21 -68 28 0 30 -2 30 -40 0 -40 0 -40 -38 -40
l-38 0 -10 -60 c-6 -33 -8 -63 -5 -65 2 -3 19 -5 38 -5 31 0 33 -2 33 -35 0
-35 0 -35 -44 -35 -41 0 -45 -2 -50 -30 -3 -16 -9 -43 -12 -60 -5 -27 -9 -30
-45 -30 l-40 0 7 48 c3 26 7 52 8 57 0 6 -23 10 -54 10 l-55 0 -10 -55 -11
-55 -43 -3 c-37 -3 -42 -1 -38 15 3 10 9 37 12 61 7 42 7 42 -24 42 -29 0 -31
3 -31 34 0 33 2 35 37 38 l38 3 11 63 11 62 -39 0 c-39 0 -39 0 -36 38 3 36 4
37 45 40 l42 3 11 55 11 54 41 0 40 0 -6 -37z"/>
<path d="M3397 2653 c-3 -5 -8 -34 -12 -65 l-7 -58 55 0 c31 0 58 3 60 8 3 4
8 33 12 65 l7 57 -55 0 c-31 0 -58 -3 -60 -7z"/>
</g>
</svg>
