<?xml version="1.0" standalone="no"?>
<!DOCTYPE svg PUBLIC "-//W3C//DTD SVG 20010904//EN"
 "http://www.w3.org/TR/2001/REC-SVG-20010904/DTD/svg10.dtd">
<svg version="1.0" xmlns="http://www.w3.org/2000/svg"
 width="61.000000pt" height="55.000000pt" viewBox="0 0 61.000000 55.000000"
 preserveAspectRatio="xMidYMid meet">

<g transform="translate(0.000000,55.000000) scale(0.100000,-0.100000)"
fill="#000000" stroke="none">
<path d="M383 515 c-9 -19 -20 -32 -24 -29 -4 2 -10 0 -14 -6 -3 -5 -1 -10 4
-10 6 0 11 -5 11 -11 0 -5 -4 -7 -10 -4 -6 3 -7 -1 -4 -9 3 -9 1 -16 -6 -16
-6 0 -8 -5 -4 -12 5 -7 0 -9 -14 -6 -13 4 -26 0 -34 -11 -12 -14 -11 -15 7 -2
11 7 4 -1 -15 -18 -19 -18 -48 -35 -63 -38 -43 -9 -43 -28 -2 -64 l37 -33 -24
-18 c-12 -9 -19 -18 -14 -18 5 0 1 -9 -9 -20 -10 -11 -22 -17 -28 -13 -6 3 -6
1 -1 -8 5 -8 19 -30 32 -50 l22 -36 65 11 c100 17 99 15 105 231 3 101 8 186
12 190 10 11 25 -57 42 -192 18 -140 22 -153 45 -153 9 0 28 -10 41 -23 14
-12 36 -31 48 -41 l22 -20 -23 55 c-14 30 -45 113 -70 186 -75 216 -102 254
-134 188z"/>
<path d="M245 380 c-16 -7 -17 -9 -3 -9 9 -1 20 4 23 9 7 11 7 11 -20 0z"/>
</g>
</svg>
