<?xml version="1.0" standalone="no"?>
<!DOCTYPE svg PUBLIC "-//W3C//DTD SVG 20010904//EN"
 "http://www.w3.org/TR/2001/REC-SVG-20010904/DTD/svg10.dtd">
<svg version="1.0" xmlns="http://www.w3.org/2000/svg"
 width="667.000000pt" height="599.000000pt" viewBox="0 0 667.000000 599.000000"
 preserveAspectRatio="xMidYMid meet">
<metadata>
Created by potrace 1.16, written by Peter Selinger 2001-2019
</metadata>
<g transform="translate(0.000000,599.000000) scale(0.100000,-0.100000)"
fill="#000000" stroke="none">
<path d="M4324 5940 c-58 -23 -190 -144 -241 -220 -16 -25 -43 -65 -60 -90
-75 -111 -123 -190 -123 -199 0 -6 -4 -11 -9 -11 -5 0 -13 -10 -17 -22 -4 -13
-10 -25 -14 -28 -4 -3 -17 -23 -29 -45 -35 -65 -73 -130 -80 -135 -9 -7 -41
-57 -64 -99 -10 -18 -23 -38 -28 -45 -16 -18 -88 -119 -107 -149 -49 -80 -166
-227 -259 -325 -29 -30 -53 -57 -53 -60 0 -12 -232 -212 -246 -212 -4 0 -28
-14 -54 -30 -54 -35 -154 -76 -220 -91 -25 -6 -70 -23 -100 -38 -112 -58 -160
-86 -160 -93 0 -5 33 -8 73 -8 200 0 386 78 567 239 195 173 301 305 595 736
37 55 76 109 87 120 18 20 18 20 12 -15 -13 -72 -133 -457 -176 -565 -27 -67
-34 -74 -103 -106 -75 -34 -150 -87 -306 -214 -133 -109 -162 -132 -235 -185
-26 -19 -61 -47 -78 -61 -35 -30 -205 -133 -285 -174 -151 -76 -387 -137 -441
-115 -16 7 -37 9 -47 5 -10 -3 -56 -56 -103 -117 -47 -61 -91 -117 -99 -125
-9 -9 -10 -17 -5 -21 6 -4 16 -21 23 -38 7 -17 42 -56 79 -87 37 -30 81 -66
97 -80 68 -57 386 -308 470 -371 50 -38 92 -70 94 -72 3 -3 -66 -115 -86 -139
-5 -5 -19 -26 -32 -45 -28 -40 -180 -230 -197 -245 -6 -5 -38 -44 -71 -85
-152 -188 -469 -451 -675 -560 -65 -34 -70 -52 -10 -33 26 8 59 18 74 23 15 5
42 22 60 39 18 17 66 54 107 83 101 73 292 240 376 329 62 66 174 198 301 354
23 28 57 73 76 100 19 28 59 86 89 130 198 285 543 904 699 1250 13 28 47 101
77 163 50 104 253 575 253 586 0 2 13 33 29 68 16 35 36 83 44 108 9 25 28 77
42 115 68 179 99 267 127 355 46 144 145 332 219 413 65 72 144 126 160 110 6
-6 -5 -30 -31 -65 -42 -59 -173 -308 -216 -411 -27 -64 -48 -112 -91 -207 -37
-81 -113 -259 -113 -264 0 -3 -13 -33 -29 -68 -16 -35 -41 -92 -56 -128 -15
-36 -54 -121 -85 -190 -55 -119 -81 -175 -152 -335 -49 -109 -375 -750 -455
-895 -178 -323 -579 -921 -742 -1106 -20 -23 -81 -93 -135 -155 -54 -63 -160
-176 -234 -253 l-134 -139 34 -12 c116 -39 233 -169 406 -445 30 -48 142 -277
142 -290 0 -5 12 -32 27 -59 l26 -50 54 35 c49 31 133 63 263 98 100 27 420
69 655 87 156 11 344 52 385 84 8 6 44 26 80 44 77 39 111 64 153 110 18 19
42 45 55 58 12 13 22 27 22 30 0 3 17 33 38 67 22 34 47 86 57 116 10 30 21
60 25 65 10 13 37 116 45 175 4 25 10 50 15 55 4 6 10 42 14 80 3 39 9 85 12
103 20 120 25 656 8 1022 -3 80 -8 174 -9 210 -5 121 -15 305 -20 365 -9 104
-12 972 -4 1156 4 97 12 210 18 250 6 41 13 97 16 124 26 247 26 244 72 367
13 38 32 72 41 77 56 31 141 -108 196 -321 28 -106 87 -378 92 -423 2 -16 6
-36 9 -44 3 -8 12 -64 21 -125 8 -61 17 -123 20 -139 2 -15 6 -46 9 -70 2 -23
13 -100 24 -172 11 -71 23 -155 26 -185 8 -88 35 -309 45 -380 5 -36 11 -92
14 -125 3 -33 12 -114 21 -180 9 -66 18 -142 21 -170 3 -27 9 -72 14 -100 5
-27 14 -102 20 -165 6 -63 15 -137 19 -165 5 -27 16 -95 26 -150 9 -55 23
-131 31 -170 8 -38 14 -83 14 -100 0 -16 7 -43 15 -59 8 -15 15 -39 15 -52 0
-13 6 -56 14 -96 27 -135 45 -243 51 -299 l7 -55 101 -2 c98 -1 134 -9 257
-54 62 -22 233 -140 355 -243 32 -27 142 -130 244 -227 102 -97 224 -207 270
-245 86 -70 198 -153 207 -153 6 0 -7 51 -19 75 -6 11 -12 25 -13 30 -1 6 -24
57 -52 115 -47 99 -77 169 -107 250 -7 19 -45 111 -84 203 -39 93 -71 177 -71
187 0 10 -4 21 -9 25 -5 3 -12 18 -16 35 -3 16 -37 100 -74 187 -38 87 -72
169 -76 183 -4 14 -13 39 -20 55 -13 31 -42 106 -55 140 -4 11 -15 38 -25 60
-9 22 -19 47 -20 55 -2 8 -14 40 -25 70 -12 30 -24 66 -27 80 -3 14 -10 30
-15 37 -6 7 -14 27 -18 45 -5 18 -25 78 -45 133 -20 55 -39 109 -42 120 -2 11
-9 29 -14 40 -5 11 -24 67 -43 125 -19 58 -40 121 -47 140 -17 51 -34 100 -48
140 -7 19 -17 49 -21 65 -14 48 -39 119 -50 137 -6 10 -10 24 -10 33 0 8 -6
29 -14 47 -16 40 -35 93 -46 133 -5 17 -18 57 -30 90 -12 33 -23 67 -25 77 -2
9 -11 30 -19 47 -9 17 -14 31 -12 31 4 0 -27 97 -44 135 -4 11 -13 34 -18 50
-15 43 -58 161 -82 225 -12 30 -25 66 -30 80 -5 14 -18 50 -30 80 -11 30 -28
75 -37 100 -8 25 -21 59 -28 75 -7 17 -30 71 -50 120 -93 222 -272 582 -310
621 -5 6 -19 27 -30 47 -11 20 -23 37 -27 37 -5 0 -8 5 -8 10 0 18 -139 157
-195 195 -46 32 -61 37 -126 41 -59 3 -85 0 -125 -16z"/>
</g>
</svg>
