<?xml version="1.0" standalone="no"?>
<!DOCTYPE svg PUBLIC "-//W3C//DTD SVG 20010904//EN"
 "http://www.w3.org/TR/2001/REC-SVG-20010904/DTD/svg10.dtd">
<svg version="1.0" xmlns="http://www.w3.org/2000/svg"
 width="61.000000pt" height="61.000000pt" viewBox="0 0 61.000000 61.000000"
 preserveAspectRatio="xMidYMid meet">

<g transform="translate(0.000000,61.000000) scale(0.100000,-0.100000)"
fill="#000000" stroke="none">
<path d="M215 600 c-55 -12 -97 -28 -117 -47 -16 -14 -18 -40 -18 -248 0 -261
-3 -250 80 -281 54 -20 215 -24 276 -6 23 7 53 21 68 33 l26 20 0 234 0 234
-27 19 c-16 10 -44 24 -63 31 -46 16 -175 22 -225 11z m223 -46 c19 -8 32 -19
30 -26 -20 -64 -306 -65 -326 -1 -14 45 205 65 296 27z m-210 -226 c2 -12 -2
-15 -17 -11 -27 7 -28 -14 -2 -22 29 -9 38 -45 15 -62 -28 -20 -74 -17 -74 6
0 14 6 17 28 14 l27 -4 -27 21 c-16 12 -28 30 -28 40 0 37 71 53 78 18z m122
2 c23 -23 26 -58 6 -86 -13 -17 -12 -21 1 -36 15 -17 14 -18 -4 -18 -11 0 -26
7 -33 15 -7 8 -17 15 -23 15 -23 0 -47 34 -47 66 0 56 61 83 100 44z m70 -30
c0 -47 2 -50 25 -50 16 0 25 -6 25 -15 0 -11 -11 -15 -40 -15 l-40 0 0 65 c0
51 3 65 15 65 11 0 15 -12 15 -50z"/>
<path d="M294 307 c-9 -24 0 -52 16 -52 21 0 24 39 6 55 -13 10 -17 9 -22 -3z"/>
</g>
</svg>
