<?xml version="1.0" standalone="no"?>
<!DOCTYPE svg PUBLIC "-//W3C//DTD SVG 20010904//EN"
 "http://www.w3.org/TR/2001/REC-SVG-20010904/DTD/svg10.dtd">
<svg version="1.0" xmlns="http://www.w3.org/2000/svg"
 width="61.000000pt" height="61.000000pt" viewBox="0 0 61.000000 61.000000"
 preserveAspectRatio="xMidYMid meet">

<g transform="translate(0.000000,61.000000) scale(0.100000,-0.100000)"
fill="#000000" stroke="none">
<path d="M474 585 c-15 -11 -59 -14 -216 -15 -185 0 -198 -1 -208 -19 -13 -26
-13 -426 0 -452 10 -17 22 -19 145 -19 131 0 134 -1 138 -23 2 -12 5 10 6 49
2 130 63 302 136 389 l26 30 -26 -44 c-34 -55 -91 -188 -105 -243 -6 -24 -13
-50 -16 -59 -6 -20 77 57 100 93 17 26 17 26 -6 22 -15 -3 -11 0 10 10 26 12
40 32 69 92 42 89 49 150 19 183 -22 25 -45 27 -72 6z m-65 -70 c-41 -60 -82
-163 -76 -192 2 -12 0 -20 -4 -17 -5 3 -9 -4 -9 -15 0 -20 -5 -21 -130 -21
l-130 0 0 138 c0 76 3 142 7 145 3 4 89 7 189 7 l183 0 -30 -45z"/>
</g>
</svg>
