<?xml version="1.0" standalone="no"?>
<!DOCTYPE svg PUBLIC "-//W3C//DTD SVG 20010904//EN"
 "http://www.w3.org/TR/2001/REC-SVG-20010904/DTD/svg10.dtd">
<svg version="1.0" xmlns="http://www.w3.org/2000/svg"
 width="2048.000000pt" height="2048.000000pt" viewBox="0 0 2048.000000 2048.000000"
 preserveAspectRatio="xMidYMid meet">
<metadata>
Created by potrace 1.16, written by Peter Selinger 2001-2019
</metadata>
<g transform="translate(0.000000,2048.000000) scale(0.100000,-0.100000)"
fill="#000000" stroke="none">
<path d="M16915 20073 c-479 -62 -1020 -339 -1538 -787 l-82 -71 -6280 -5
-6280 -5 -90 -21 c-269 -63 -508 -183 -693 -349 -244 -218 -396 -473 -480
-805 l-27 -105 -3 -6980 c-2 -5039 0 -7002 8 -7060 67 -487 367 -914 800
-1139 186 -97 373 -149 594 -166 73 -6 1730 -10 4177 -10 l4056 0 7 -92 c28
-388 121 -1041 197 -1391 66 -304 184 -687 211 -687 6 0 37 14 70 32 49 26 59
35 55 52 -3 12 -25 92 -51 179 -337 1166 -382 2900 -125 4827 202 1515 585
3145 1126 4795 175 534 613 1589 996 2400 632 1338 1345 2574 2074 3596 630
883 1298 1643 1923 2189 l75 65 -59 -65 c-508 -567 -860 -1049 -1384 -1899
-849 -1380 -1871 -3410 -2617 -5201 -608 -1461 -1221 -3386 -1594 -5005 -100
-433 -279 -1321 -269 -1331 3 -2 26 54 52 124 59 157 182 411 271 557 393 649
1072 1252 1836 1628 l166 82 134 170 c310 393 873 1158 1244 1690 167 239 495
726 495 735 0 15 -1120 -257 -1482 -360 -254 -73 -419 -131 -643 -227 -121
-52 -232 -102 -247 -109 -16 -8 -28 -12 -28 -10 0 2 71 45 158 94 879 500
1781 927 2442 1156 91 32 174 61 186 66 40 16 581 908 920 1517 1053 1890
1632 3431 1795 4773 31 252 34 841 6 1045 -94 681 -326 1185 -732 1590 -292
292 -590 455 -930 510 -83 14 -359 19 -440 8z m-2106 -1342 c-19 -22 -100
-114 -181 -205 -1326 -1501 -2654 -4057 -3334 -6418 -86 -299 -198 -747 -249
-996 l-35 -173 21 -42 c110 -215 279 -696 386 -1097 31 -114 38 -158 35 -206
l-4 -62 -112 222 c-107 210 -427 791 -445 809 -9 9 -138 -369 -254 -747 l-65
-209 69 -141 c38 -78 78 -163 89 -191 10 -27 37 -97 59 -155 23 -58 41 -106
41 -108 0 -1 -57 -1 -127 0 l-127 3 -56 97 c-30 53 -58 94 -61 90 -3 -4 -17
-49 -29 -99 l-24 -93 -4256 0 -4257 0 -6 143 c-4 78 -7 2058 -7 4400 0 4239 0
4259 20 4358 88 432 429 765 863 844 59 11 1196 13 6076 14 l6004 1 -34 -39z"/>
</g>
</svg>
