<?xml version="1.0" standalone="no"?>
<!DOCTYPE svg PUBLIC "-//W3C//DTD SVG 20010904//EN"
 "http://www.w3.org/TR/2001/REC-SVG-20010904/DTD/svg10.dtd">
<svg version="1.0" xmlns="http://www.w3.org/2000/svg"
 width="61.000000pt" height="59.000000pt" viewBox="0 0 61.000000 59.000000"
 preserveAspectRatio="xMidYMid meet">

<g transform="translate(0.000000,59.000000) scale(0.100000,-0.100000)"
fill="#000000" stroke="none">
<path d="M442 574 c-27 -19 -29 -64 -4 -87 58 -53 137 28 82 83 -24 24 -48 25
-78 4z"/>
<path d="M516 270 c-37 -7 -56 -23 -56 -47 0 -20 -59 -71 -89 -78 -31 -7 -34
-14 -46 -97 -7 -48 -7 -48 21 -48 16 1 51 9 79 18 l50 17 -3 42 c-3 35 0 44
22 58 16 11 38 16 56 13 29 -4 31 -2 45 46 27 90 22 96 -79 76z"/>
</g>
</svg>
