<?xml version="1.0" standalone="no"?>
<!DOCTYPE svg PUBLIC "-//W3C//DTD SVG 20010904//EN"
 "http://www.w3.org/TR/2001/REC-SVG-20010904/DTD/svg10.dtd">
<svg version="1.0" xmlns="http://www.w3.org/2000/svg"
 width="439.000000pt" height="422.000000pt" viewBox="0 0 439.000000 422.000000"
 preserveAspectRatio="xMidYMid meet">
<metadata>
Created by potrace 1.16, written by Peter Selinger 2001-2019
</metadata>
<g transform="translate(0.000000,422.000000) scale(0.100000,-0.100000)"
fill="#000000" stroke="none">
<path d="M3299 4187 c-260 -89 -373 -374 -247 -622 33 -64 133 -159 200 -190
225 -103 490 -11 598 209 30 60 35 81 38 161 7 149 -31 248 -131 343 -91 85
-184 122 -312 122 -57 0 -99 -7 -146 -23z"/>
<path d="M3846 1960 c-271 -47 -464 -84 -471 -92 -6 -7 -17 -46 -23 -85 -64
-397 -390 -703 -804 -754 -51 -6 -97 -15 -101 -19 -5 -4 -44 -225 -88 -491
-71 -429 -78 -484 -65 -497 12 -13 44 -15 163 -14 314 2 617 77 888 220 103
55 108 64 71 138 -38 76 -49 134 -44 243 3 92 6 104 46 184 73 148 194 240
358 274 95 19 188 9 285 -32 34 -15 68 -24 76 -21 21 8 106 194 148 320 49
151 83 327 95 497 12 176 7 203 -41 206 -19 1 -241 -34 -493 -77z"/>
</g>
</svg>
